<svg width="67" height="60" viewBox="0 0 67 60" fill="none" xmlns="http://www.w3.org/2000/svg">
<path d="M48.1753 42.4324C48.4822 42.0441 49.6197 42.3913 49.3954 43.0963C48.737 45.1453 46.9032 47.4716 44.6084 47.2694C39.6777 46.8328 41.8685 35.3711 43.0509 32.703C43.2429 32.2699 46.4511 32.2789 45.9056 34.3064C45.5091 35.8239 42.7118 45.0988 45.4248 45.4263C46.7184 45.5837 47.6353 43.1178 48.1753 42.436V42.4324Z" fill="#000E55"/>
<path d="M50.5445 44.5574C50.2933 45.1659 51.447 47.5459 52.8376 47.7302C55.1719 48.0398 56.6234 43.4837 57.5044 42.5747C58.0032 42.0611 58.9004 42.8145 58.7712 43.2744C58.0032 45.9837 55.2042 49.7989 51.9978 49.3246C48.325 48.7824 47.0816 44.3176 47.3166 41.1485C47.5929 37.4066 48.8615 30.2505 54.0092 30.1771C56.2377 30.1449 57.0864 32.3209 56.8029 34.1677C56.1677 38.305 51.3394 42.632 50.5445 44.5557V44.5574ZM50.3956 42.691C50.6199 42.7751 53.7221 36.8591 54.09 33.595C54.1904 32.7039 53.9213 32.1849 53.6001 32.2422C51.2981 32.6538 50.6324 39.316 50.4404 41.5887C50.4063 41.9913 50.3956 42.691 50.3956 42.691Z" fill="#000E55"/>
<path d="M35.8305 38.6965C34.5709 41.7476 33.0799 46.6221 31.6499 50.8865C29.8018 51.7437 29.0177 51.1621 28.9818 50.185C28.919 47.6171 29.4286 40.6918 29.9202 35.4987L31.1959 34.8026C32.4017 34.1494 33.358 34.5342 33.2468 35.4504C32.8843 38.3118 31.8957 42.7533 31.5961 46.3716C33.4442 40.7276 34.5727 37.9789 36.1104 34.6469C36.6146 33.5499 38.0823 33.235 39.5159 34.7739C37.7952 44.7575 38.7605 47.3898 39.7725 47.3362C40.7037 47.286 41.3766 46.683 42.2916 44.133C42.8174 43.6856 43.7288 43.8574 43.5727 44.5249C43.0093 46.8244 41.2061 48.9467 39.0781 49.14C36.2701 49.3941 35.129 45.11 35.8269 38.7001L35.8305 38.6965Z" fill="#000E55"/>
<path d="M19.0889 37.5699C18.809 36.9794 18.1344 36.6877 17.5118 36.8881C16.8246 37.1082 16.1535 37.3784 15.5058 37.6951C13.8802 38.504 12.4394 39.6833 11.2229 41.0451C10.1212 42.2619 9.20616 43.6327 8.5064 45.1162C8.31621 45.5224 8.63738 45.9966 9.07339 45.9536C9.39815 45.9232 9.53092 45.6423 9.6942 45.3971C9.89874 45.0911 10.1141 44.7923 10.3473 44.5042C10.8999 43.8045 11.5082 43.1495 12.1685 42.5482C13.3832 41.4405 14.806 40.4957 16.3527 39.9589C15.5202 49.7044 13.2827 55.5739 11.5279 55.8907C9.74803 56.211 6.72291 53.3317 5.39874 45.0625C3.10389 30.7591 7.1948 23.653 11.6194 22.8549C14.1619 22.3968 15.8216 25.8971 13.8748 32.9888C13.7062 33.5543 14.0991 34.7157 15.9813 34.3757C19.7959 33.6885 21.7211 18.3025 12.2636 20.0078C2.59073 21.7526 -1.32613 37.4428 0.392771 48.1583C1.91968 57.6766 6.90233 60.3644 9.14157 59.9617C12.0913 59.4285 15.2977 56.925 17.4544 48.8293C18.5614 45.3649 19.2127 38.2964 19.2127 38.2964C19.2397 38.0477 19.1966 37.7972 19.0889 37.5699Z" fill="#000E55"/>
<path d="M29.9198 47.073H29.0693C28.8379 52.0978 25.4772 51.8258 24.2607 51.4858C23.0442 51.1458 22.0807 49.8288 22.3068 49.2919C23.046 47.5042 27.659 43.4833 28.2475 39.6376C28.5113 37.9215 27.598 35.8994 25.5274 35.928C20.7404 35.996 19.5651 42.6476 19.3068 46.1245C19.0932 49.0056 20.1985 52.3215 23.4443 52.9658C23.4443 52.9658 26.5376 53.6798 28.3911 51.8402C28.3911 51.8402 30.2499 50.158 29.9216 47.0748L29.9198 47.073ZM22.1686 47.5597C22.1686 47.5597 22.1794 46.9065 22.2099 46.5343C22.3893 44.4227 23.0083 38.2311 25.1489 37.8499C25.4503 37.7963 25.8199 38.2776 25.7284 39.1062C25.3839 42.1411 22.3767 47.6349 22.1686 47.5597Z" fill="#000E55"/>
<path d="M50.8585 10.469C49.3818 10.0503 42.5834 8.64556 40.5505 15.8286C38.5176 23.0116 45.0702 24.9174 43.825 29.3571C43.825 29.3571 43.2275 30.8853 44.8531 31.322C46.4805 31.7586 46.7568 30.1964 46.7568 30.1964C48.0218 25.762 54.7341 27.6124 56.7939 20.4401C58.8537 13.2678 52.3334 10.8878 50.8585 10.469ZM51.8974 24.8136L51.63 24.7349C50.7939 24.4879 50.1193 23.8276 49.7066 22.8613C49.0858 23.28 48.4345 23.5019 47.8119 23.5001C47.5607 23.5001 47.313 23.4643 47.0726 23.3927C46.2365 23.1476 45.5619 22.4855 45.1492 21.5174C44.5266 21.9361 43.877 22.158 43.2508 22.158C43.0014 22.158 42.7538 22.1204 42.5152 22.0506L42.2479 21.9719L42.5834 20.832L42.8507 20.9107C42.9799 20.9483 43.1127 20.9662 43.2455 20.968C43.8465 20.968 44.4081 20.619 44.7957 20.2987C44.6378 19.3771 44.6773 18.3893 44.9052 17.6252C45.1761 16.709 45.7036 16.1847 46.3549 16.1847C46.4751 16.1847 46.5953 16.2026 46.712 16.2384C47.505 16.4728 47.7975 17.2942 47.4745 18.384C47.2485 19.1499 46.7407 20.0017 46.1109 20.6852C46.3621 21.5299 46.8232 22.0864 47.4081 22.2582C47.5391 22.2976 47.6755 22.3173 47.8119 22.3173C48.4093 22.3173 48.9656 21.9665 49.3531 21.648C49.0858 20.1037 49.3782 18.5396 50.0636 17.8918C50.2915 17.6664 50.5983 17.5375 50.9195 17.5357C51.0379 17.5357 51.1563 17.5536 51.2694 17.5876C51.6982 17.7111 52.0248 18.0601 52.1163 18.4967C52.337 19.4129 51.7305 20.8839 50.6665 22.0345C50.8352 22.5714 51.2048 23.3838 51.9656 23.6075L52.2329 23.6862L51.8974 24.819V24.8136ZM51.1599 18.715C51.151 18.6202 51.0846 18.5414 50.9913 18.5182C50.9715 18.5128 50.9518 18.5092 50.9321 18.5074H50.9177C50.8495 18.511 50.7867 18.5414 50.7419 18.5915C50.4189 18.8958 50.1641 19.8603 50.2592 20.9859C50.9536 20.0947 51.2622 19.1463 51.1581 18.7168L51.1599 18.715ZM46.4339 17.1743C46.4177 17.1689 46.4016 17.1671 46.3854 17.1653H46.3711C46.145 17.1653 45.9512 17.5447 45.8489 17.8972C45.709 18.3696 45.6587 19.0085 45.709 19.6366C46.0732 19.1767 46.3531 18.656 46.5308 18.0976C46.5702 17.9598 46.7568 17.2691 46.4339 17.1725V17.1743Z" fill="#00B0EE"/>
<path d="M51.3438 8.22986L51.3599 1.88433C51.3617 0.841063 52.2122 -0.00178664 53.2564 2.84423e-06C54.3025 0.00179233 55.1476 0.85001 55.1458 1.89149C55.1458 2.22076 55.0579 2.54465 54.8928 2.83097L51.7116 8.32649C51.6559 8.41954 51.5357 8.45175 51.4424 8.39628C51.3814 8.36049 51.3455 8.29607 51.3455 8.22807L51.3438 8.22986Z" fill="#00B0EE"/>
<path d="M58.4197 13.6844L62.9304 9.21247C63.6732 8.47699 64.8718 8.48057 65.6092 9.21962C66.3467 9.96047 66.3431 11.1558 65.6021 11.8913C65.367 12.1222 65.0764 12.2904 64.757 12.3763L58.6134 14.0119C58.5094 14.0387 58.4017 13.9779 58.3748 13.8741C58.3551 13.8061 58.3748 13.7345 58.4214 13.6844H58.4197Z" fill="#00B0EE"/>
<path d="M58.7452 22.8477L65.1076 22.8638C66.1537 22.8656 66.9988 23.7138 66.9952 24.757C66.9934 25.8003 66.1429 26.6432 65.0969 26.6396C64.7667 26.6396 64.4419 26.5519 64.1567 26.3873L58.6447 23.2127C58.5514 23.1572 58.5191 23.0391 58.5729 22.9461C58.6088 22.8852 58.6734 22.8477 58.7434 22.8477H58.7452Z" fill="#00B0EE"/>
<path d="M42.5984 9.15095L41.1576 2.96827C40.919 1.95363 39.9016 1.32194 38.8843 1.55994C37.8669 1.79794 37.2335 2.81258 37.4722 3.82722C37.5475 4.14575 37.7036 4.44102 37.9279 4.68081L42.2646 9.32632C42.3382 9.40506 42.462 9.41043 42.5428 9.33706C42.5948 9.28874 42.6163 9.21716 42.6002 9.14916L42.5984 9.15095Z" fill="#00B0EE"/>
<path d="M37.7358 16.2743L32.3315 12.919C31.4452 12.3678 30.2771 12.6363 29.7245 13.5221C29.1718 14.4061 29.441 15.571 30.3291 16.1222C30.6108 16.2976 30.9338 16.396 31.2657 16.4067L37.6228 16.6376C37.7322 16.6411 37.8219 16.5553 37.8255 16.4461C37.8273 16.3763 37.7932 16.3101 37.7322 16.2725H37.7358V16.2743Z" fill="#00B0EE"/>
</svg>
