<svg width="24" height="24" viewBox="0 0 24 24" fill="none" xmlns="http://www.w3.org/2000/svg">
<path d="M17.1868 17.4206L16.9407 17.593L16.9775 17.8913L17.3673 21.0498C17.3674 21.05 17.3674 21.0501 17.3674 21.0503C17.4181 21.474 16.9693 21.7522 16.6228 21.5423L16.6192 21.5401L12.4292 19.0502L12.3111 18.98H12.1738C12.0277 18.98 11.8828 18.9768 11.7391 18.9705C12.2254 18.1607 12.5038 17.2248 12.5038 16.23C12.5038 13.0826 9.78754 10.59 6.50375 10.59C5.54968 10.59 4.64824 10.7964 3.84406 11.1731C3.88263 6.96128 7.56131 3.5 12.1738 3.5C16.8106 3.5 20.5038 6.99799 20.5038 11.24C20.5038 13.7611 19.2068 16.0047 17.1868 17.4206Z" fill="#000E55" fill-opacity="0.4" stroke="#000E55"/>
<path d="M13 15.23C13 16.42 12.56 17.5201 11.82 18.3901C10.83 19.5901 9.26 20.36 7.5 20.36L4.89 21.91C4.45 22.18 3.89 21.81 3.95 21.3L4.2 19.3301C2.86 18.4001 2 16.91 2 15.23C2 13.47 2.94 11.9201 4.38 11.0001C5.27 10.4201 6.34 10.0901 7.5 10.0901C10.54 10.0901 13 12.39 13 15.23Z" fill="#000E55"/>
</svg>
