<svg width="1600" height="1600" viewBox="0 0 1600 1600" fill="none" xmlns="http://www.w3.org/2000/svg">
<g opacity="0.16">
<mask id="mask0_47_56" style="mask-type:alpha" maskUnits="userSpaceOnUse" x="432" y="407" width="736" height="785">
<rect x="432" y="407" width="736" height="785" fill="url(#paint0_radial_47_56)"/>
</mask>
<g mask="url(#mask0_47_56)">
<rect x="481" y="408" width="1" height="783" fill="#00B0EE"/>
<rect x="432" y="408" width="1" height="783" fill="#00B0EE"/>
<rect x="433" y="457" width="0.999968" height="734" transform="rotate(-90 433 457)" fill="#00B0EE"/>
<rect x="432" y="408" width="0.999968" height="736" transform="rotate(-90 432 408)" fill="#00B0EE"/>
<rect x="433" y="506" width="0.999968" height="734" transform="rotate(-90 433 506)" fill="#00B0EE"/>
<rect x="433" y="555" width="0.999968" height="734" transform="rotate(-90 433 555)" fill="#00B0EE"/>
<rect x="433" y="604" width="0.999968" height="734" transform="rotate(-90 433 604)" fill="#00B0EE"/>
<rect x="433" y="653" width="0.999968" height="734" transform="rotate(-90 433 653)" fill="#00B0EE"/>
<rect x="433" y="702" width="0.999968" height="734" transform="rotate(-90 433 702)" fill="#00B0EE"/>
<rect x="433" y="751" width="0.999968" height="734" transform="rotate(-90 433 751)" fill="#00B0EE"/>
<rect x="433" y="800" width="0.999968" height="734" transform="rotate(-90 433 800)" fill="#00B0EE"/>
<rect x="433" y="849" width="0.999968" height="734" transform="rotate(-90 433 849)" fill="#00B0EE"/>
<rect x="433" y="898" width="0.999968" height="734" transform="rotate(-90 433 898)" fill="#00B0EE"/>
<rect x="433" y="947" width="0.999968" height="734" transform="rotate(-90 433 947)" fill="#00B0EE"/>
<rect x="433" y="996" width="0.999968" height="734" transform="rotate(-90 433 996)" fill="#00B0EE"/>
<rect x="433" y="1045" width="0.999968" height="734" transform="rotate(-90 433 1045)" fill="#00B0EE"/>
<rect x="433" y="1094" width="0.999968" height="734" transform="rotate(-90 433 1094)" fill="#00B0EE"/>
<rect x="433" y="1143" width="0.999968" height="734" transform="rotate(-90 433 1143)" fill="#00B0EE"/>
<rect x="432" y="1192" width="0.999968" height="736" transform="rotate(-90 432 1192)" fill="#00B0EE"/>
<rect x="530" y="408" width="1" height="783" fill="#00B0EE"/>
<rect x="579" y="408" width="1" height="783" fill="#00B0EE"/>
<rect x="628" y="408" width="1" height="783" fill="#00B0EE"/>
<rect x="677" y="408" width="1" height="783" fill="#00B0EE"/>
<rect x="726" y="408" width="1" height="783" fill="#00B0EE"/>
<rect x="775" y="408" width="1" height="783" fill="#00B0EE"/>
<rect x="824" y="408" width="1" height="783" fill="#00B0EE"/>
<rect x="873" y="408" width="1" height="783" fill="#00B0EE"/>
<rect x="922" y="408" width="1" height="783" fill="#00B0EE"/>
<rect x="971" y="408" width="1" height="783" fill="#00B0EE"/>
<rect x="1020" y="408" width="1" height="783" fill="#00B0EE"/>
<rect x="1069" y="408" width="1" height="783" fill="#00B0EE"/>
<rect x="1118" y="408" width="1" height="783" fill="#00B0EE"/>
<rect x="1167" y="408" width="1" height="783" fill="#00B0EE"/>
</g>
</g>
<g opacity="0.24" filter="url(#filter0_f_47_56)">
<circle cx="800" cy="800" r="200" fill="#00B0EE"/>
</g>
<defs>
<filter id="filter0_f_47_56" x="0" y="0" width="1600" height="1600" filterUnits="userSpaceOnUse" color-interpolation-filters="sRGB">
<feFlood flood-opacity="0" result="BackgroundImageFix"/>
<feBlend mode="normal" in="SourceGraphic" in2="BackgroundImageFix" result="shape"/>
<feGaussianBlur stdDeviation="300" result="effect1_foregroundBlur_47_56"/>
</filter>
<radialGradient id="paint0_radial_47_56" cx="0" cy="0" r="1" gradientUnits="userSpaceOnUse" gradientTransform="translate(800 799.5) rotate(90) scale(392.5 368)">
<stop stop-color="#D9D9D9"/>
<stop offset="1" stop-color="#D9D9D9" stop-opacity="0"/>
</radialGradient>
</defs>
</svg>
