<svg width="24" height="24" viewBox="0 0 24 24" fill="none" xmlns="http://www.w3.org/2000/svg">
<path d="M11.2 2.3999C10.316 2.3999 9.59998 3.1159 9.59998 3.9999H3.19998C2.31598 3.9999 1.59998 4.7159 1.59998 5.5999V12.7999C1.59998 13.6839 2.31598 14.3999 3.19998 14.3999H20.8C21.684 14.3999 22.4 13.6839 22.4 12.7999V5.5999C22.4 4.7159 21.684 3.9999 20.8 3.9999H14.4C14.4 3.1159 13.684 2.3999 12.8 2.3999H11.2ZM5.59998 10.3999C6.04158 10.3999 6.39998 10.7583 6.39998 11.1999V11.9999C6.39998 12.4415 6.04158 12.7999 5.59998 12.7999C5.15838 12.7999 4.79998 12.4415 4.79998 11.9999V11.1999C4.79998 10.7583 5.15838 10.3999 5.59998 10.3999ZM18.4 10.3999C18.8416 10.3999 19.2 10.7583 19.2 11.1999V11.9999C19.2 12.4415 18.8416 12.7999 18.4 12.7999C17.9584 12.7999 17.6 12.4415 17.6 11.9999V11.1999C17.6 10.7583 17.9584 10.3999 18.4 10.3999ZM1.59998 15.5546V18.3999C1.59998 19.2839 2.31598 19.9999 3.19998 19.9999H20.8C21.684 19.9999 22.4 19.2839 22.4 18.3999V15.5546C21.9272 15.8298 21.3856 15.9999 20.8 15.9999H3.19998C2.61438 15.9999 2.07278 15.8298 1.59998 15.5546Z" fill="#000E55"/>
</svg>
