<svg width="31" height="30" viewBox="0 0 31 30" fill="none" xmlns="http://www.w3.org/2000/svg">
<path d="M24.342 5.80638C21.8709 3.35065 18.5813 2 15.087 2C11.5927 2 8.30815 3.35065 5.83707 5.80638C3.36088 8.2621 2 11.5262 2 15C2 18.4738 3.36088 21.7379 5.83707 24.1936C8.30815 26.6442 11.5927 28 15.087 28C18.5813 28 21.8658 26.6493 24.3369 24.1936C26.8131 21.7379 28.1739 18.4738 28.1739 15C28.1739 11.5262 26.8131 8.2621 24.342 5.80638V5.80638ZM25.2987 10.8253H20.4435C20.4384 10.8099 20.4384 10.7946 20.4333 10.7792C19.9626 8.23652 19.2719 6.09799 18.7347 4.66037C21.7072 5.69382 24.1015 7.95514 25.2987 10.8253ZM13.6084 4.14876C14.0944 4.08225 14.5856 4.05155 15.087 4.05155C15.5014 4.05155 15.9055 4.07713 16.3046 4.11806C16.7446 5.13617 17.732 7.64305 18.3562 10.8253H12.0224C12.5545 7.28493 13.4396 4.63991 13.6084 4.14876ZM4.04644 15C4.04644 14.2735 4.11806 13.5624 4.2562 12.8717H9.71507C9.52578 14.9233 9.51043 16.8981 9.66903 18.7552H4.71665C4.28178 17.5836 4.04644 16.32 4.04644 15V15ZM5.72963 20.8017H9.92483C10.1806 22.3621 10.5643 23.8355 11.0862 25.2015C8.86068 24.342 6.98308 22.7816 5.72963 20.8017V20.8017ZM9.95553 10.8253H4.88036C6.05706 8.0063 8.38489 5.78079 11.2755 4.72176C10.8918 6.03148 10.329 8.19559 9.95553 10.8253ZM16.5604 25.8512C16.0795 25.9126 15.5883 25.9484 15.0921 25.9484C14.5805 25.9484 14.0791 25.9126 13.5828 25.8461C12.8052 24.2294 12.3038 22.5155 12.0071 20.8017H18.4585C18.0952 22.5053 17.4915 24.2192 16.5604 25.8512ZM18.7757 18.7552H11.7308C11.5415 16.6627 11.6029 14.6419 11.7717 12.8717H18.6887C18.9138 14.647 19.0008 16.6678 18.7757 18.7552V18.7552ZM19.1952 25.1657C19.7989 23.7997 20.2542 22.3416 20.5458 20.8017H24.4494C23.2164 22.756 21.3747 24.2959 19.1952 25.1657ZM20.8426 18.7552L20.8579 18.571C21.0216 16.7599 20.9858 14.8465 20.7505 12.8717H25.9229C26.061 13.5624 26.1326 14.2735 26.1326 15C26.1326 16.32 25.8973 17.5836 25.4624 18.7552H20.8426V18.7552Z" fill="#00B0EE"/>
</svg>
