<svg width="60" height="60" viewBox="0 0 60 60" fill="none" xmlns="http://www.w3.org/2000/svg">
<path opacity="0.4" d="M39.3002 5H20.7002C19.7502 5 18.9502 5.8 18.9502 6.75C18.9502 7.7 19.7502 8.5 20.7002 8.5H28.8502L32.3502 13.15C33.1252 14.175 33.2252 14.325 34.6752 14.325H43.9752C44.9252 14.325 45.8502 14.45 46.7502 14.7C46.8502 15.15 46.9002 15.6 46.9002 16.075V16.95C46.9002 17.9 47.7002 18.7 48.6502 18.7C49.6002 18.7 50.4002 17.9 50.4002 16.95V16.05C50.3502 9.95 45.4002 5 39.3002 5Z" fill="#000E55"/>
<path d="M50.35 16.35C49.275 15.575 48.05 15 46.725 14.675C45.85 14.425 44.9 14.3 43.95 14.3H34.65C33.2 14.3 33.1 14.15 32.325 13.125L28.825 8.475C27.2 6.325 25.925 5 21.85 5H16.05C9.95 5 5 9.95 5 16.05V43.95C5 50.05 9.95 55 16.05 55H43.95C50.05 55 55 50.05 55 43.95V25.35C55 21.625 53.175 18.35 50.35 16.35ZM35.825 40H24.175C23.2 40 22.425 39.225 22.425 38.25C22.425 37.3 23.2 36.5 24.175 36.5H35.8C36.75 36.5 37.55 37.3 37.55 38.25C37.55 39.225 36.775 40 35.825 40Z" fill="#000E55"/>
</svg>
