<svg width="32" height="32" viewBox="0 0 32 32" fill="none" xmlns="http://www.w3.org/2000/svg">
<path d="M11.4962 24.058C11.4962 24.1672 11.3701 24.2545 11.211 24.2545C11.0301 24.2709 10.9039 24.1836 10.9039 24.058C10.9039 23.9488 11.0301 23.8615 11.1891 23.8615C11.3536 23.8451 11.4962 23.9325 11.4962 24.058ZM9.7907 23.8124C9.75231 23.9215 9.86199 24.0471 10.0265 24.0799C10.1691 24.1344 10.3336 24.0799 10.3665 23.9707C10.3994 23.8615 10.2952 23.7359 10.1307 23.6868C9.98812 23.6486 9.82908 23.7032 9.7907 23.8124ZM12.2146 23.7196C12.0555 23.7578 11.9459 23.8615 11.9623 23.9871C11.9788 24.0962 12.1213 24.1672 12.2859 24.129C12.4449 24.0908 12.5546 23.9871 12.5381 23.8779C12.5217 23.7742 12.3736 23.7032 12.2146 23.7196ZM15.823 2.80078C8.21683 2.80078 2.39844 8.54908 2.39844 16.1207C2.39844 22.1747 6.22618 27.3552 11.6936 29.1785C12.3955 29.3041 12.6423 28.8728 12.6423 28.518C12.6423 28.1795 12.6259 26.3126 12.6259 25.1662C12.6259 25.1662 8.78715 25.985 7.98102 23.5394C7.98102 23.5394 7.35586 21.9509 6.4565 21.5414C6.4565 21.5414 5.2007 20.6844 6.54424 20.7008C6.54424 20.7008 7.90973 20.8099 8.66102 22.1092C9.86199 24.2163 11.8746 23.6104 12.6588 23.2501C12.7849 22.3767 13.1413 21.7707 13.5362 21.4104C10.4707 21.072 7.37779 20.6298 7.37779 15.3783C7.37779 13.877 7.79457 13.1237 8.67199 12.1629C8.52941 11.8081 8.06328 10.3451 8.81457 8.45628C9.9607 8.10144 12.5984 9.9302 12.5984 9.9302C13.6952 9.6245 14.8742 9.46619 16.0423 9.46619C17.2104 9.46619 18.3894 9.6245 19.4862 9.9302C19.4862 9.9302 22.1239 8.09598 23.2701 8.45628C24.0213 10.3505 23.5552 11.8081 23.4126 12.1629C24.2901 13.1292 24.8275 13.8825 24.8275 15.3783C24.8275 20.6462 21.5975 21.0665 18.532 21.4104C19.0365 21.8417 19.4642 22.6605 19.4642 23.9434C19.4642 25.7831 19.4478 28.0595 19.4478 28.5071C19.4478 28.8619 19.7001 29.2932 20.3965 29.1676C25.8804 27.3552 29.5984 22.1747 29.5984 16.1207C29.5984 8.54908 23.4291 2.80078 15.823 2.80078ZM7.72876 21.6288C7.65747 21.6834 7.67392 21.8089 7.76715 21.9126C7.85489 22 7.98102 22.0382 8.05231 21.9672C8.1236 21.9126 8.10715 21.7871 8.01392 21.6834C7.92618 21.596 7.80005 21.5578 7.72876 21.6288ZM7.1365 21.1866C7.09811 21.2576 7.15295 21.3449 7.26263 21.3995C7.35037 21.4541 7.46005 21.4377 7.49844 21.3613C7.53682 21.2903 7.48199 21.203 7.37231 21.1484C7.26263 21.1156 7.17489 21.132 7.1365 21.1866ZM8.91328 23.13C8.82553 23.201 8.85844 23.3647 8.98457 23.4685C9.1107 23.594 9.26973 23.6104 9.34102 23.523C9.41231 23.4521 9.37941 23.2883 9.26973 23.1846C9.14908 23.059 8.98457 23.0427 8.91328 23.13ZM8.28812 22.3275C8.20037 22.3821 8.20037 22.5241 8.28812 22.6496C8.37586 22.7752 8.52392 22.8298 8.59521 22.7752C8.68295 22.7042 8.68295 22.5623 8.59521 22.4367C8.51844 22.3112 8.37586 22.2566 8.28812 22.3275Z" fill="#000E55"/>
</svg>
