<svg width="512" height="512" viewBox="0 0 512 512" fill="none" xmlns="http://www.w3.org/2000/svg">
<path d="M256 32C132.3 32 32 132.3 32 256C32 379.7 132.3 480 256 480C379.7 480 480 379.7 480 256C480 132.3 379.7 32 256 32ZM434.3 184.5L372.8 203.4C366.5 189.4 357.7 176.6 346.5 165.4C335.3 154.2 322.5 145.4 308.5 139.1L327.4 77.6C351.2 87.1 373 101.5 391.7 120.1C410.4 138.9 424.8 160.7 434.3 184.5ZM256 352C203 352 160 309 160 256C160 203 203 160 256 160C309 160 352 203 352 256C352 309 309 352 256 352ZM120.2 120.2C138.9 101.5 160.7 87.2 184.5 77.7L203.4 139.2C189.4 145.5 176.6 154.3 165.4 165.5C154.2 176.7 145.4 189.5 139.1 203.5L77.6 184.6C87.2 160.7 101.6 138.9 120.2 120.2ZM77.7 327.5L139.2 308.6C145.5 322.6 154.3 335.4 165.5 346.6C176.7 357.8 189.5 366.6 203.5 372.9L184.6 434.4C160.8 424.9 139 410.5 120.3 391.9C101.6 373.1 87.2 351.3 77.7 327.5ZM391.8 391.8C373.1 410.5 351.3 424.8 327.5 434.3L308.6 372.8C322.6 366.5 335.4 357.7 346.6 346.5C357.8 335.3 366.6 322.5 372.9 308.5L434.4 327.4C424.8 351.3 410.4 373.1 391.8 391.8Z" fill="#000E55"/>
</svg>
