<svg width="34" height="27" viewBox="0 0 34 27" fill="none" xmlns="http://www.w3.org/2000/svg">
<path d="M32.5717 4.16333C33.3333 7.13333 33.3333 13.3333 33.3333 13.3333C33.3333 13.3333 33.3333 19.5333 32.5717 22.5033C32.1483 24.145 30.91 25.4367 29.3417 25.8733C26.4933 26.6667 16.6667 26.6667 16.6667 26.6667C16.6667 26.6667 6.845 26.6667 3.99167 25.8733C2.41667 25.43 1.18 24.14 0.761667 22.5033C4.96705e-08 19.5333 0 13.3333 0 13.3333C0 13.3333 4.96705e-08 7.13333 0.761667 4.16333C1.185 2.52167 2.42333 1.23 3.99167 0.793333C6.845 -2.98023e-07 16.6667 0 16.6667 0C16.6667 0 26.4933 -2.98023e-07 29.3417 0.793333C30.9167 1.23667 32.1533 2.52667 32.5717 4.16333V4.16333ZM13.3333 19.1667L23.3333 13.3333L13.3333 7.5V19.1667Z" fill="#000E55"/>
</svg>
