<svg width="48" height="48" viewBox="0 0 48 48" fill="none" xmlns="http://www.w3.org/2000/svg">
<path d="M36 37.7195H34.48C32.88 37.7195 31.36 38.3395 30.24 39.4595L26.82 42.8395C25.26 44.3795 22.72 44.3795 21.16 42.8395L17.74 39.4595C16.62 38.3395 15.08 37.7195 13.5 37.7195H12C8.68 37.7195 6 35.0595 6 31.7795V9.95947C6 6.67947 8.68 4.01953 12 4.01953H36C39.32 4.01953 42 6.67947 42 9.95947V31.7795C42 35.0395 39.32 37.7195 36 37.7195Z" fill="#00B0EE"/>
<path d="M20.7566 29.0199H15.3965C14.5165 29.0199 13.6965 28.5999 13.1765 27.8799C12.6765 27.1999 12.5565 26.3599 12.7965 25.5599C13.4965 23.4199 15.2165 22.2598 16.7365 21.2198C18.3365 20.1398 19.2365 19.4599 19.2365 18.2999C19.2365 17.2599 18.3965 16.4199 17.3565 16.4199C16.3165 16.4199 15.4766 17.2599 15.4766 18.2999C15.4766 19.1199 14.7966 19.7999 13.9766 19.7999C13.1566 19.7999 12.4766 19.1199 12.4766 18.2999C12.4766 15.6199 14.6565 13.4199 17.3565 13.4199C20.0565 13.4199 22.2365 15.5999 22.2365 18.2999C22.2365 21.1199 20.1166 22.5598 18.4166 23.7198C17.3566 24.4398 16.3565 25.1199 15.8565 26.0199H20.7365C21.5565 26.0199 22.2365 26.6999 22.2365 27.5199C22.2365 28.3399 21.5766 29.0199 20.7566 29.0199Z" fill="white"/>
<path d="M32.0778 29.0199C31.2578 29.0199 30.5778 28.3399 30.5778 27.5199V26.1399H26.6578C26.6578 26.1399 26.6578 26.1399 26.6378 26.1399C25.6578 26.1399 24.7578 25.6199 24.2578 24.7799C23.7578 23.9199 23.7578 22.8599 24.2578 22.0199C25.6178 19.6799 27.1978 17.0198 28.6378 14.6998C29.2778 13.6798 30.4978 13.2199 31.6378 13.5399C32.7778 13.8799 33.5778 14.9199 33.5578 16.1199V23.1599H33.9978C34.8178 23.1599 35.4978 23.8399 35.4978 24.6599C35.4978 25.4799 34.8178 26.1599 33.9978 26.1599H33.5778V27.5399C33.5778 28.3599 32.9178 29.0199 32.0778 29.0199ZM30.5778 17.2799C29.3978 19.1999 28.1778 21.2599 27.0778 23.1399H30.5778V17.2799Z" fill="white"/>
</svg>
