<svg width="60" height="60" viewBox="0 0 60 60" fill="none" xmlns="http://www.w3.org/2000/svg">
<path opacity="0.4" d="M39.3031 5H20.7031C19.7531 5 18.9531 5.8 18.9531 6.75C18.9531 7.7 19.7531 8.5 20.7031 8.5H28.8531L32.3531 13.15C33.1281 14.175 33.2281 14.325 34.6781 14.325H43.9781C44.9281 14.325 45.8531 14.45 46.7531 14.7C46.8531 15.15 46.9031 15.6 46.9031 16.075V16.95C46.9031 17.9 47.7031 18.7 48.6531 18.7C49.6031 18.7 50.4031 17.9 50.4031 16.95V16.05C50.3531 9.95 45.4031 5 39.3031 5Z" fill="#00B0EE"/>
<path d="M50.35 16.35C49.275 15.575 48.05 15 46.725 14.675C45.85 14.425 44.9 14.3 43.95 14.3H34.65C33.2 14.3 33.1 14.15 32.325 13.125L28.825 8.475C27.2 6.325 25.925 5 21.85 5H16.05C9.95 5 5 9.95 5 16.05V43.95C5 50.05 9.95 55 16.05 55H43.95C50.05 55 55 50.05 55 43.95V25.35C55 21.625 53.175 18.35 50.35 16.35ZM35.825 40H24.175C23.2 40 22.425 39.225 22.425 38.25C22.425 37.3 23.2 36.5 24.175 36.5H35.8C36.75 36.5 37.55 37.3 37.55 38.25C37.55 39.225 36.775 40 35.825 40Z" fill="#00B0EE"/>
</svg>
