<svg width="188" height="206" viewBox="0 0 188 206" fill="none" xmlns="http://www.w3.org/2000/svg">
<path d="M109.684 180.537C109.082 180.968 107.99 181.171 107.3 181.531C106.174 182.145 105.08 182.816 104.022 183.541C102.268 184.84 100.646 186.307 99.1779 187.922C97.47 189.862 96.0992 192.075 95.1223 194.468C94.8745 195.079 94.897 195.795 94.2008 195.748C94.0161 195.732 92.6011 195.721 92.5876 195.586C92.1201 191.075 92.5997 186.517 93.9958 182.203C94.8039 179.639 95.9223 177.184 97.3258 174.892C99.8966 170.78 105.085 165.708 109.389 162.816C112.21 166.485 106.863 176.855 109.684 180.537Z" fill="#70DAFF"/>
<path d="M93.9122 178.832C91.3932 184.407 90.2531 191.111 91.0778 197.31C91.1409 198.106 91.2921 198.892 91.5284 199.654L91.6208 199.829C91.5712 199.854 91.7199 200.235 91.8258 200.505C92.5535 202.308 93.8018 203.728 95.264 204.976C95.8543 205.463 96.3455 205.947 97.1273 205.995C97.5329 206.015 98.3778 205.97 98.567 205.501C99.4435 203.297 101.829 199.036 99.4525 197.013C98.8374 196.474 98.006 196.402 97.3504 195.94C96.957 195.649 96.6464 195.261 96.4491 194.813C96.491 194.417 96.5557 194.024 96.6429 193.635C96.9941 192.373 97.531 191.171 98.2358 190.068C98.335 189.894 99.3218 188.634 99.2452 188.49C99.0199 188.04 98.7946 187.589 98.5693 187.138C97.098 184.303 95.5321 181.552 93.9122 178.832Z" fill="#08BDFD"/>
<path d="M161.051 171.15C164.122 159.899 164.683 147.616 156.373 140.432C156.373 140.432 148.607 141.074 134.519 149.094C132.333 150.333 130.188 151.958 127.512 153.375C124.835 154.793 122.648 155.503 120.527 156.53C109.195 162.026 106.734 164.956 106.734 164.956C94.4215 179.285 128.934 223.367 177.764 197.495C164.935 196.684 157.137 185.421 161.051 171.15Z" fill="#70DAFF"/>
<path d="M143.463 168.508C142.435 166.161 140.735 164.172 138.577 162.791C136.419 161.41 133.901 160.699 131.34 160.748C128.779 160.798 126.29 161.605 124.187 163.068C122.084 164.531 120.461 166.584 119.524 168.968C118.587 171.352 118.377 173.961 118.92 176.465C119.464 178.968 120.737 181.255 122.579 183.035C124.421 184.816 126.749 186.011 129.269 186.469C131.79 186.928 134.389 186.629 136.74 185.611C139.899 184.235 142.382 181.659 143.643 178.452C144.904 175.244 144.839 171.667 143.463 168.508Z" fill="#08BDFD"/>
<path d="M133.017 166.904C132.698 166.177 132.17 165.56 131.501 165.132C130.831 164.703 130.05 164.483 129.256 164.499C128.461 164.514 127.689 164.765 127.037 165.219C126.385 165.673 125.881 166.31 125.591 167.05C125.3 167.79 125.235 168.599 125.404 169.375C125.573 170.152 125.968 170.861 126.54 171.413C127.112 171.966 127.834 172.336 128.616 172.478C129.398 172.62 130.204 172.527 130.933 172.211C131.418 172 131.857 171.695 132.225 171.313C132.592 170.932 132.881 170.482 133.074 169.99C133.268 169.497 133.362 168.971 133.352 168.441C133.343 167.912 133.229 167.39 133.017 166.904Z" fill="#60AD50"/>
<path d="M141.452 173.137C141.134 172.409 140.606 171.791 139.936 171.362C139.267 170.933 138.485 170.712 137.69 170.727C136.895 170.742 136.122 170.993 135.469 171.447C134.816 171.901 134.312 172.538 134.021 173.278C133.73 174.019 133.665 174.828 133.834 175.606C134.003 176.383 134.398 177.093 134.97 177.645C135.542 178.198 136.265 178.569 137.047 178.711C137.829 178.853 138.636 178.76 139.366 178.444C139.852 178.233 140.291 177.928 140.658 177.547C141.026 177.166 141.315 176.716 141.508 176.223C141.702 175.73 141.797 175.204 141.787 174.674C141.778 174.145 141.664 173.623 141.452 173.137Z" fill="#AA7AB5"/>
<path d="M131.815 177.316C131.495 176.588 130.968 175.97 130.298 175.542C129.629 175.114 128.847 174.893 128.053 174.909C127.258 174.925 126.486 175.175 125.833 175.629C125.181 176.084 124.678 176.721 124.387 177.461C124.097 178.201 124.032 179.01 124.202 179.787C124.371 180.564 124.766 181.273 125.338 181.825C125.91 182.377 126.633 182.747 127.415 182.889C128.197 183.03 129.004 182.937 129.733 182.62C130.712 182.193 131.481 181.394 131.871 180.399C132.262 179.404 132.241 178.295 131.815 177.316Z" fill="#D5635C"/>
<path d="M170.523 142.874C167.9 141.873 165.173 141.17 162.394 140.778C160.986 140.573 159.276 140.262 157.698 140.282H157.586C150.752 140.302 152.593 147.401 155.157 151.91C157.721 156.419 161.161 153.17 161.506 152.908C161.851 152.647 164.701 151.689 165.909 151.392C167.859 150.908 169.853 150.623 171.861 150.542C174.466 150.461 177.066 150.816 179.553 151.592C180.344 151.835 180.412 152.056 180.844 151.398C180.937 151.259 181.689 150.272 181.595 150.175C178.464 146.986 174.692 144.498 170.53 142.874H170.523Z" fill="#70DAFF"/>
<path d="M185.866 150.927C185.426 150.324 184.914 149.778 184.341 149.3C179.929 144.874 173.911 141.71 167.945 140.324C169.112 143.238 170.338 146.134 171.667 148.982C171.893 149.453 172.118 149.933 172.343 150.402C172.427 150.557 174.02 150.541 174.218 150.564C175.52 150.677 176.798 150.98 178.012 151.465C178.374 151.63 178.726 151.818 179.064 152.026C179.307 152.456 179.43 152.943 179.418 153.437C179.386 154.235 178.952 154.933 178.99 155.756C179.152 158.874 183.985 159.555 186.252 160.193C186.741 160.326 187.288 159.643 187.513 159.327C187.964 158.69 187.874 157.998 187.836 157.252C187.79 155.41 187.337 153.602 186.508 151.956C186.333 151.621 186.189 151.418 185.866 150.927Z" fill="#08BDFD"/>
<path opacity="0.3" d="M108.855 163.178C108.082 163.69 107.371 164.29 106.735 164.965C105.856 165.994 105.194 167.191 104.788 168.482C104.354 169.908 104.166 171.397 104.232 172.885C104.265 173.309 104.331 173.729 104.428 174.143C104.468 174.357 104.509 174.573 104.556 174.787C104.581 174.895 104.556 175.013 104.673 175.013H104.964C105.579 175.013 106.194 175.013 106.809 174.979C112.537 174.763 118.202 173.712 123.626 171.858C126.891 170.74 130.064 169.367 133.113 167.75C134.733 166.894 136.407 166.152 138.027 165.294C139.549 164.487 141.035 163.62 142.486 162.693C147.474 159.529 151.963 155.638 155.804 151.149C157.36 149.32 158.799 147.393 160.109 145.38C160.508 144.765 160.9 144.143 161.236 143.496C161.515 142.99 161.754 142.463 161.95 141.919C162.034 141.688 162.098 141.451 162.144 141.209C162.162 141.104 162.173 140.998 162.177 140.891C162.177 140.677 162.09 140.725 161.88 140.698C160.995 140.565 160.107 140.429 159.217 140.351C158.431 140.3 157.642 140.3 156.856 140.351C156.583 140.364 156.317 140.411 156.051 140.427C155.907 140.404 155.76 140.398 155.614 140.409C155.461 140.482 155.298 140.533 155.13 140.56C154.729 140.643 154.348 140.785 153.945 140.873C152.396 141.252 150.866 141.698 149.353 142.212C148.512 142.502 147.68 142.807 146.857 143.127C146.508 143.266 146.167 143.425 145.836 143.602C145.462 143.801 145.032 143.884 144.642 144.053C141.323 145.465 138.088 147.068 134.954 148.853C131.89 150.572 129.096 152.683 125.913 154.182C124.477 154.858 122.995 155.428 121.544 156.066C119.951 156.771 118.39 157.582 116.86 158.396C114.281 159.751 111.772 161.237 109.344 162.846L108.821 163.202C107.237 164.352 111.635 161.274 108.855 163.178Z" fill="#08BDFD"/>
<path d="M172.42 69.9492L100.19 106.076L27.9688 142.207L28.5748 155.8C28.5748 155.8 56.0619 168.27 116.243 138.176C176.424 108.082 182.933 78.6024 182.933 78.6024L172.42 69.9492Z" fill="#70DAFF"/>
<path d="M118.196 165.391C97.6191 171.324 67.728 174.828 42.1876 157.704C26.9728 147.508 19.8081 134.217 18.3346 130.348C9.20079 109.143 12.2469 96.2242 12.6209 94.818L12.9679 93.5268L13.7519 92.4474C14.6531 91.2103 36.1607 62.0015 89.7583 46.5069C105.437 41.9776 122.468 39.0571 140.377 37.8268L142.164 37.7051L143.802 38.4239C165.337 47.85 177.167 68.8293 175.475 94.5656C173.673 122.098 155.256 154.68 118.196 165.391Z" fill="#70DAFF"/>
<path d="M159.964 24.6992C159.964 24.6992 177.143 38.6704 183.262 52.254C190.988 69.4116 192.437 97.3765 158.254 138.648C117.888 91.4546 104.203 51.9904 104.203 51.9904L165.103 34.3168" fill="#70DAFF"/>
<path d="M1.77344 114.687C1.77344 114.687 4.55594 184.769 100.795 168.657C82.3377 113.108 56.3376 82.957 56.3376 82.957L4.69112 116.436L1.77344 114.687Z" fill="#70DAFF"/>
<path d="M153.598 133.103C202.526 80.0127 158.51 42.5 158.51 42.5L142.047 45.6548L150.032 128.707C151.193 130.161 152.382 131.627 153.598 133.103Z" fill="#08BDFD"/>
<path d="M10.8359 112.801C10.8359 112.801 17.1895 179.833 101.014 162.151C79.5942 139.015 26.0349 105.018 26.0349 105.018L10.8359 112.801Z" fill="#08BDFD"/>
<path d="M25.1185 127.631C26.3915 131.487 49.8682 177.531 116.157 158.37C172.708 142.028 186.815 65.2203 140.862 45.1152C52.4479 51.1814 19.6684 96.7186 19.6684 96.7186C19.6684 96.7186 16.6336 108.038 25.1185 127.631Z" fill="url(#paint0_linear_2025_11488)"/>
<path opacity="0.2" d="M154.36 54.145C150.446 50.3373 145.87 47.2765 140.857 45.1133C138.528 45.271 136.241 45.4648 133.983 45.6789L75.1112 66.9016L19.5962 97.0389C19.265 98.6162 17.9966 106.557 22.0746 119.51C44.9903 101.136 94.2913 66.6064 154.36 54.145Z" fill="#303030"/>
<path d="M58.8193 99.3964C58.8193 99.3964 82.9268 92.51 90.9048 117.771C92.5631 122.855 91.3847 124.691 91.3847 124.691C91.3847 124.691 80.9914 103.633 68.629 111.808C56.2666 119.984 45.0915 133.038 45.0915 133.038L36.0703 126.561L46.0716 106.145L58.8193 99.3964Z" fill="#EA9F75"/>
<path d="M86.4766 136.408C86.4766 136.408 112.436 140.014 128.23 112.297C137.585 143.793 100.479 154.517 86.4766 136.408Z" fill="#F3DBB3"/>
<path d="M87.3356 145.576C87.3356 145.576 80.9076 136.788 90.0911 128.092L87.3356 145.576Z" fill="#E49870"/>
<path d="M121.875 109.223C121.875 109.223 125.946 118.157 138.575 115.613L121.875 109.223Z" fill="#E49870"/>
<path d="M54.1044 10.8346C-20.6155 47.6938 4.01252 126.3 4.01252 126.3C4.01252 126.3 24.8149 99.2837 84.1171 70.0275C143.419 40.7713 179.524 45.7311 179.524 45.7311C179.524 45.7311 130.667 -26.811 54.1044 10.8346Z" fill="#70DAFF"/>
<path opacity="0.5" d="M141.501 17.1167C126.933 8.29234 112.234 3.9545 97.5152 4.07844C97.5152 4.07844 77.9475 3.26495 59.7812 13.2611C70.0281 32.5279 84.3236 59.4833 84.3236 59.4833L84.9319 59.1611C85.3195 58.956 85.9728 58.627 86.4956 58.3633C114.559 44.1127 135.459 38.4296 150.13 37.1564C155.148 36.7192 161.972 36.0455 166.578 36.2055C160.961 30.2745 152.694 23.8883 141.501 17.1167Z" fill="url(#paint1_linear_2025_11488)"/>
<path d="M91.6552 4.15269L92.0337 4.07157L93.1602 3.87778L94.9762 3.65243C95.6972 3.6006 96.5173 3.53751 97.4433 3.47892C98.3693 3.42033 99.3989 3.45413 100.519 3.44061C101.638 3.42709 102.839 3.53526 104.139 3.59159C105.439 3.64793 106.796 3.8575 108.24 3.99946C109.684 4.14143 111.18 4.48395 112.746 4.7476L113.936 4.96167L115.132 5.26138L117.592 5.86755C119.277 6.23485 120.954 6.82976 122.698 7.37734C123.57 7.66127 124.459 7.92492 125.345 8.23364L127.992 9.27923C129.777 9.99131 131.631 10.6651 133.4 11.5935C134.301 12.0307 135.202 12.4746 136.103 12.9117C137.037 13.3241 137.947 13.7883 138.829 14.3021L144.237 17.4051C145.165 17.9053 146.001 18.5318 146.884 19.1154C147.767 19.699 148.632 20.2962 149.511 20.8911C150.39 21.486 151.268 22.0787 152.149 22.6736L154.67 24.6228C156.345 25.9298 158.018 27.2367 159.688 28.5437L164.388 32.7621C165.931 34.184 167.511 35.4775 168.957 37.0121C170.403 38.5467 171.701 40.0857 172.934 41.6722C175.306 44.7184 177.379 47.9859 179.125 51.4295C180.695 54.5084 181.977 57.7257 182.955 61.0403C183.788 63.8319 184.336 66.701 184.589 69.6033C184.791 71.833 184.826 74.0746 184.692 76.3095C184.665 77.2334 184.544 78.0424 184.467 78.7725C184.39 79.5026 184.289 80.0885 184.197 80.5752L183.94 82.0715L184.07 80.5594C184.115 80.0704 184.174 79.462 184.183 78.7567C184.192 78.0514 184.262 77.2244 184.23 76.3072C184.226 74.0971 184.053 71.8906 183.712 69.707C183.271 66.8941 182.597 64.1226 181.698 61.4211C180.625 58.2348 179.259 55.1548 177.618 52.2204C175.783 48.9543 173.683 45.8447 171.338 42.9228C170.113 41.4108 168.808 39.9235 167.407 38.5038C166.006 37.0842 164.433 35.7727 162.901 34.3913L158.246 30.2721L153.307 26.4097L150.829 24.4786C149.967 23.8882 149.104 23.3015 148.24 22.7186L145.661 20.9655C144.798 20.3954 143.973 19.7644 143.072 19.2686C141.302 18.217 139.551 17.1745 137.818 16.1409C136.966 15.5978 136.045 15.1967 135.166 14.7303L132.525 13.3917C130.797 12.4633 129.017 11.7332 127.276 10.9851L124.703 9.87864C123.842 9.54513 122.979 9.25669 122.134 8.95248C120.44 8.36208 118.816 7.72887 117.178 7.30748L114.778 6.63146L113.611 6.30246L112.449 6.05007L110.195 5.56334C109.452 5.41236 108.749 5.22082 108.039 5.12843C106.627 4.90308 105.291 4.65295 104.022 4.50648C102.754 4.36001 101.562 4.24283 100.46 4.16171L97.414 4.04228L94.9604 4.0558L93.158 4.14819L92.0315 4.2586L91.6484 4.30818L91.6552 4.15269Z" fill="url(#paint2_linear_2025_11488)"/>
<g opacity="0.5">
<path opacity="0.5" d="M162.048 41.7639L159.137 42.2146L155.8 42.7329C154.518 42.9582 153.049 43.1678 151.486 43.4495C149.922 43.7312 148.203 43.9926 146.4 44.3283L140.734 45.3829C138.783 45.8043 136.746 46.1446 134.7 46.6178C132.655 47.091 130.566 47.4854 128.502 48.0104L125.393 48.7495L122.336 49.5585C121.324 49.8289 120.308 50.0768 119.326 50.3607L116.41 51.2283C115.453 51.51 114.504 51.7646 113.592 52.0598L110.917 52.9431L108.369 53.7566C107.544 54.0158 106.774 54.3245 106.019 54.5926L101.903 56.0596L98.7847 57.3125L96.0337 58.3716L95.6484 57.5829L98.2552 56.17L101.27 54.5746L105.289 52.7291C106.033 52.4046 106.796 52.0373 107.608 51.7128L110.126 50.7032L112.796 49.6689C113.698 49.3309 114.655 49.0154 115.615 48.6864L118.544 47.7039C119.537 47.3839 120.547 47.1068 121.576 46.8026C122.606 46.4984 123.622 46.1851 124.663 45.9012L127.802 45.1125C129.895 44.5672 132.008 44.0962 134.09 43.6636C136.172 43.2309 138.238 42.8749 140.234 42.5166C142.239 42.2349 144.17 41.9104 146.017 41.7076C147.865 41.5048 149.607 41.2997 151.222 41.1915C154.817 40.869 158.429 40.772 162.037 40.9009L162.048 41.7639Z" fill="#08BDFD"/>
</g>
<g opacity="0.5">
<path opacity="0.5" d="M63.145 75.9126L60.6059 77.3706L57.6769 79.0764C56.5662 79.7525 55.2819 80.4668 53.9188 81.3164C52.5558 82.1659 51.0597 83.0289 49.4984 83.9889C47.937 84.9489 46.3013 85.9787 44.6048 87.0355C42.942 88.142 41.1621 89.192 39.4228 90.3931C37.6834 91.5942 35.8833 92.7051 34.1552 93.9513L31.5416 95.7765L29.0115 97.6514C28.1666 98.2733 27.3194 98.8795 26.4993 99.4947L24.0998 101.363C23.3135 101.973 22.5227 102.557 21.7725 103.166L19.6028 104.968L17.5367 106.652C16.8608 107.195 16.2615 107.765 15.6554 108.285L12.3547 111.154L9.88992 113.452L7.72249 115.453L7.07812 114.861L8.99096 112.594L11.2079 110.018L14.2766 106.836C15.4031 105.658 16.6626 104.461 18.0369 103.186L20.1458 101.25C20.8757 100.601 21.6418 99.9679 22.4258 99.3009L24.7938 97.3179C25.6026 96.6554 26.4475 96.0244 27.2721 95.3642C28.0967 94.7039 28.9551 94.0459 29.8203 93.3992L32.4654 91.5131C34.2183 90.2534 36.0072 89.0343 37.7893 87.8715C39.5715 86.7088 41.3671 85.6181 43.093 84.5613C44.8594 83.5675 46.5379 82.5625 48.1826 81.7017C49.8273 80.8409 51.3752 80.0094 52.8441 79.3198C56.0665 77.7124 59.3865 76.3088 62.7846 75.1172L63.145 75.9126Z" fill="#08BDFD"/>
</g>
<path d="M141.256 65.2229C141.256 65.2229 141.213 65.2477 122.053 64.8984C91.2967 67.2127 99.0314 90.166 103.898 98.551C110.657 110.269 137.27 115.001 149.2 87.9983C156.975 73.3375 141.256 65.2229 141.256 65.2229Z" fill="#EA9F75"/>
<path d="M76.7916 103.495C74.6712 103.643 72.5634 103.935 70.4831 104.372C61.3065 100.106 59.2179 103.752 59.2179 103.752L48.9846 114.794C41.295 121.002 37.2891 127.427 37.2891 127.427C37.2891 127.427 50.4401 149.447 71.7831 135.87C81.4824 129.696 82.627 117.922 78.2426 110.754C77.8573 108.572 77.3752 106.161 76.7916 103.495Z" fill="#EA9F75"/>
<path d="M76.1667 142.188C89.4078 135.169 94.734 119.25 88.056 106.631C81.3779 94.0121 65.2169 89.476 51.969 96.4909C38.7211 103.506 33.3972 119.431 40.0797 132.05C46.7622 144.669 62.9188 149.207 76.1667 142.188Z" fill="#EA9F75"/>
<path d="M45.4204 11.2353C39.3372 14.2707 12.8752 29.9094 27.6349 58.5301C40.5629 83.5656 62.9693 76.4966 74.4981 86.1908C78.3418 84.0659 88.1471 79.1241 88.9649 78.7298C88.1899 63.909 107.325 50.091 94.5975 25.1299C79.9685 -3.55166 51.5216 8.2112 45.4204 11.2353Z" fill="#08BDFD"/>
<path d="M63.7012 66.7782C60.8071 66.9187 57.9138 66.4869 55.1869 65.5072C52.4198 64.5114 49.8659 63.0014 47.6595 61.0567C45.3207 59.0037 43.4032 56.5156 42.0134 53.7308C40.5838 50.9856 39.7051 47.987 39.4269 44.9042C39.1548 42.0011 39.4462 39.0728 40.2853 36.2804C41.1261 33.5368 42.5048 30.9882 44.3408 28.7832C46.2518 26.4981 48.6253 24.6441 51.3049 23.3435C53.4505 22.2623 55.7477 21.5131 58.1181 21.1216C62.5339 20.4054 67.0626 21.1549 71.0123 23.2556C73.0472 24.3506 74.9083 25.7419 76.5345 27.3839L68.1982 31.5166C66.3209 30.1783 64.1409 29.3267 61.8537 29.0379C59.5406 28.7374 57.2124 29.1686 54.8693 30.3313C53.2285 31.133 51.7968 32.3057 50.6876 33.7565C49.5924 35.1907 48.8046 36.8354 48.3737 38.5879C47.9247 40.4304 47.814 42.3393 48.047 44.2214C48.2677 46.2242 48.8558 48.1692 49.7819 49.9586C50.703 51.7902 51.9489 53.4394 53.4589 54.826C54.8544 56.1328 56.4689 57.1839 58.2285 57.9312C59.9148 58.6329 61.7238 58.9921 63.5502 58.9881C65.3878 58.9785 67.1983 58.5443 68.8404 57.7194C70.2141 57.0521 71.4517 56.1351 72.4903 55.0153C73.4587 53.9644 74.248 52.7616 74.8267 51.4549C75.3988 50.1983 75.7436 48.8501 75.8451 47.4731C75.948 46.0999 75.8301 44.719 75.4958 43.3831L65.3977 48.4038L61.8447 41.4182L80.4525 32.1791C82.3361 35.6043 83.5234 38.9281 84.0011 42.1753C84.4871 45.2053 84.3375 48.3033 83.5617 51.2724C82.7949 54.0901 81.4094 56.7013 79.5063 58.916C77.5092 61.258 75.0481 63.1601 72.2785 64.5022C69.6101 65.8527 66.688 66.6281 63.7012 66.7782Z" fill="url(#paint3_linear_2025_11488)"/>
<path d="M150.808 79.5126C150.808 79.5126 138.224 69.9469 113.569 83.0663C110.514 89.5133 115.764 104.152 130.605 101.675C150.914 98.2724 150.808 79.5126 150.808 79.5126Z" fill="#F3DBB3"/>
<path d="M138.84 93.6264C141.722 92.7896 144.265 91.0605 146.104 88.6875C147.942 86.3145 148.981 83.4197 149.071 80.4192C144.267 77.9043 134.527 74.7676 120.727 79.8648C120.705 82.0749 121.2 84.2595 122.173 86.2442C123.145 88.2289 124.568 89.9588 126.327 91.2958C128.087 92.6328 130.135 93.5398 132.307 93.9445C134.48 94.3491 136.717 94.2402 138.84 93.6264Z" fill="#735232"/>
<path d="M142.163 93.6879C139.791 94.9493 137.131 95.5716 134.445 95.4937C131.759 95.4157 129.139 94.6402 126.844 93.2434C124.548 91.8465 122.656 89.8764 121.352 87.5265C120.048 85.1767 119.378 82.5279 119.407 79.8407L119.418 78.9393L120.266 78.6261C134.685 73.3102 144.876 76.7445 149.686 79.2728L150.412 79.6536L150.387 80.4761C150.3 83.2082 149.494 85.869 148.049 88.1893C146.604 90.5096 144.572 92.4072 142.159 93.6902L142.163 93.6879ZM122.075 80.7601C122.321 83.9583 123.751 86.9498 126.085 89.1494C128.419 91.349 131.49 92.5985 134.697 92.6534C137.904 92.7084 141.016 91.5649 143.424 89.4465C145.833 87.3282 147.364 84.3874 147.719 81.1995C143.132 79.0091 134.329 76.5146 122.052 80.7668L122.075 80.7601Z" fill="#303030"/>
<path d="M125.578 78.2523C125.641 78.9503 125.77 79.6407 125.963 80.3142C126.64 82.6666 128.096 84.7191 130.092 86.1352C132.089 87.5513 134.507 88.2468 136.95 88.1077C139.394 87.9686 141.718 87.0031 143.54 85.3696C145.363 83.7362 146.577 81.5316 146.982 79.1176C141.762 77.4524 134.552 76.4676 125.578 78.2523Z" fill="#303030"/>
<path d="M142.606 80.3477C142.424 79.722 142.045 79.1714 141.526 78.7772C141.007 78.383 140.375 78.1661 139.724 78.1584C139.072 78.1508 138.435 78.3528 137.907 78.7347C137.379 79.1165 136.988 79.6581 136.791 80.2794C136.594 80.9007 136.602 81.5688 136.813 82.1853C137.025 82.8017 137.429 83.3338 137.966 83.7031C138.503 84.0723 139.144 84.2591 139.796 84.236C140.447 84.2129 141.074 83.981 141.583 83.5746C141.896 83.3256 142.157 83.0169 142.35 82.6665C142.544 82.3161 142.666 81.9309 142.71 81.533C142.754 81.135 142.719 80.732 142.606 80.3477Z" fill="#F3DBB3"/>
<path d="M58.7593 112.748C42.4856 120.894 40.9062 128.775 40.9062 128.775C53.165 144.238 69.272 136.675 74.8235 129.931C74.8235 129.931 81.1073 123.035 75.8464 113.814C70.8086 108.805 66.9356 108.203 66.9356 108.203L58.7593 112.748Z" fill="#F3DBB3"/>
<path d="M150.821 81.7328C128.346 74.9928 108.937 85.5411 108.745 85.6515L106.875 82.5103C107.697 82.019 127.339 70.5671 151.336 77.7623L150.821 81.7328Z" fill="#303030"/>
<path d="M67.4416 104.688L48.8672 117.778L50.2461 120.335C53.5356 126.278 61.3065 130.149 67.6061 129.101C69.7098 128.775 71.7133 127.981 73.4684 126.776C75.2234 125.571 76.685 123.987 77.7449 122.14L77.9702 121.793L77.9567 121.469C78.2902 110.7 67.4416 104.688 67.4416 104.688Z" fill="#303030"/>
<path d="M52.5078 117.965C55.0177 122.697 61.2701 127.204 66.6369 126.321C67.925 126.119 69.1716 125.708 70.3274 125.104C72.1367 124.121 73.6593 122.685 74.7457 120.935C74.2298 116.021 68.0721 109.781 66.2696 108.582L65.5374 108.97C63.1559 110.218 56.9329 114.267 52.5078 117.965Z" fill="#735232"/>
<path d="M68.184 109.984C67.433 109.801 66.6466 109.64 65.825 109.502C63.3917 110.149 59.5705 112.12 55.7109 114.861C56.6187 116.402 57.8968 117.693 59.4292 118.616C60.9617 119.538 62.7001 120.064 64.487 120.146C66.274 120.227 68.053 119.861 69.6628 119.081C71.2726 118.301 72.6624 117.131 73.7063 115.679C72.2696 113.424 70.391 111.484 68.184 109.975V109.984Z" fill="#303030"/>
<path d="M67.1923 113.507C67.7599 113.206 68.2256 112.744 68.5306 112.178C68.8355 111.613 68.9659 110.969 68.9053 110.33C68.8447 109.69 68.5959 109.083 68.1902 108.584C67.7846 108.086 67.2403 107.719 66.6263 107.53C66.0122 107.341 65.356 107.339 64.7404 107.523C64.1249 107.707 63.5777 108.069 63.168 108.564C62.7584 109.059 62.5047 109.665 62.4389 110.304C62.3732 110.943 62.4984 111.587 62.7988 112.155C62.9981 112.533 63.27 112.867 63.5988 113.14C63.9276 113.412 64.307 113.617 64.7151 113.743C65.1232 113.868 65.5521 113.912 65.9771 113.872C66.4022 113.831 66.8151 113.708 67.1923 113.507Z" fill="#F3DBB3"/>
<path d="M43.2654 131.944L39.8047 130.777C40.0706 129.993 45.4892 110.027 67.6911 104.561L70.9603 107.265C62.5743 109.318 55.2834 115.828 51.1873 120.003C45.4059 125.903 43.2992 131.847 43.2654 131.944Z" fill="#303030"/>
<path d="M60.573 99.7732C57.9824 101.334 55.4938 103.059 53.122 104.936C50.2245 107.226 47.5557 109.792 45.1529 112.597C43.9675 113.965 42.8753 115.41 41.8837 116.924C40.8853 118.431 40.0119 120.018 39.2723 121.667C38.5678 123.229 38.0126 124.855 37.6141 126.521L37.2558 128.202C37.2401 128.263 36.67 128.182 36.6137 128.191C36.4402 128.191 34.5859 128.121 34.5859 128.065L34.6062 126.487C34.6182 125.648 34.6731 124.811 34.7707 123.977C35.1784 120.386 36.1406 116.879 37.6231 113.582C39.1191 110.21 40.9296 106.986 43.0305 103.953C45.1416 100.924 47.4763 98.056 50.015 95.3745C51.3534 93.9684 52.757 92.6344 54.1832 91.3184L59.4735 98.304L60.573 99.7732Z" fill="#303030"/>
<path d="M102.047 65.2162C104.853 64.4272 107.701 63.7938 110.577 63.3188C114.096 62.7177 117.648 62.3226 121.213 62.1357C128.631 61.7504 136.219 62.3183 143.259 64.7317C146.689 65.8985 149.926 67.5693 152.864 69.6892C154.147 70.6441 155.353 71.6989 156.469 72.844C156.656 73.0079 156.829 73.1864 156.987 73.3781L156.336 74.0541L155.412 75.0321C155.266 75.1898 155.246 75.3408 155.056 75.2214C153.942 74.3645 152.777 73.5766 151.566 72.862C148.574 71.206 145.33 70.0541 141.964 69.4526C134.608 68.0758 126.934 68.8825 119.695 70.5635C114.891 71.6331 110.205 73.176 105.706 75.1695L102.673 66.9423C102.466 66.3654 102.259 65.7908 102.047 65.2162Z" fill="#303030"/>
<path d="M158.553 73.7143C156.548 66.7745 152.2 60.7447 146.248 56.6522C140.296 52.5598 133.11 50.658 125.913 51.2708C118.717 51.8836 111.956 54.9732 106.781 60.0131C101.607 65.053 98.3403 71.7314 97.5373 78.9103C96.7344 86.0893 98.445 93.3246 102.378 99.3834C106.311 105.442 112.222 109.95 119.105 112.138C125.989 114.326 133.417 114.06 140.126 111.384C146.835 108.708 152.408 103.788 155.897 97.4631C157.878 93.8733 159.132 89.9281 159.588 85.8531C160.044 81.7782 159.692 77.6533 158.553 73.7143Z" fill="#3795D2" fill-opacity="0.2"/>
<path d="M88.4309 112.974C86.4282 106.033 82.0813 100.002 76.1309 95.9077C70.1804 91.8134 62.9947 89.9094 55.798 90.52C48.6012 91.1307 41.8389 94.2182 36.6631 99.2566C31.4873 104.295 28.2184 110.973 27.4133 118.151C26.6083 125.33 28.3169 132.566 32.248 138.626C36.1791 144.686 42.0895 149.195 48.9721 151.385C55.8547 153.576 63.2837 153.311 69.9932 150.637C76.7027 147.963 82.2775 143.045 85.7678 136.72C89.7672 129.471 90.725 120.93 88.4309 112.974Z" fill="#3795D2" fill-opacity="0.2"/>
<path d="M144.239 111.903C139.848 114.228 134.995 115.545 130.032 115.759C125.069 115.973 120.12 115.079 115.546 113.141C110.972 111.202 106.887 108.269 103.588 104.555C100.289 100.84 97.8587 96.4365 96.4742 91.6648C92.1078 76.5398 99.0066 60.2228 112.894 52.8654C117.285 50.5398 122.138 49.2219 127.102 49.0077C132.066 48.7934 137.015 49.6882 141.589 51.6268C146.164 53.5655 150.249 56.4994 153.547 60.2152C156.846 63.931 159.275 68.3353 160.659 73.1079C165.036 88.2283 158.122 104.545 144.239 111.903ZM114.949 56.7413C108.382 60.2324 103.405 66.112 101.045 73.1667C98.6862 80.2213 99.1249 87.9126 102.271 94.6532C105.417 101.394 111.03 106.669 117.952 109.391C124.874 112.112 132.576 112.072 139.47 109.278C146.363 106.485 151.921 101.151 154.996 94.3783C158.072 87.6053 158.43 79.9098 155.998 72.8802C153.565 65.8505 148.527 60.0231 141.923 56.6006C135.32 53.1782 127.655 52.4219 120.51 54.4879C118.583 55.045 116.72 55.8002 114.949 56.7413Z" fill="#336070"/>
<path d="M74.1093 151.159C69.7185 153.484 64.8649 154.801 59.9013 155.015C54.9376 155.229 49.9887 154.334 45.4143 152.395C40.8398 150.456 36.7548 147.522 33.4562 143.807C30.1576 140.091 27.7282 135.687 26.3448 130.914C21.9694 115.787 28.8772 99.472 42.7672 92.1123C47.158 89.7842 52.0127 88.4648 56.9777 88.25C61.9427 88.0352 66.8931 88.9304 71.4685 90.8706C76.0439 92.8107 80.1292 95.7469 83.4269 99.4654C86.7246 103.184 89.1518 107.591 90.5317 112.366C94.9071 127.482 87.997 143.799 74.1093 151.159ZM44.8197 95.9949C38.2338 99.4936 33.2422 105.388 30.8754 112.461C28.5086 119.533 28.9472 127.245 32.1006 134.004C35.254 140.763 40.8816 146.053 47.8217 148.782C54.7619 151.511 62.4847 151.471 69.3962 148.67C76.3076 145.869 81.8801 140.521 84.9634 133.73C88.0467 126.939 88.4053 119.223 85.9654 112.175C83.5254 105.127 78.4731 99.2851 71.8512 95.8549C65.2294 92.4247 57.5436 91.6682 50.3802 93.7415C48.4546 94.3007 46.5914 95.0558 44.8197 95.9949Z" fill="#336070"/>
<path d="M110.392 109.803C110.203 109.788 108.483 109.718 108.294 109.709C96.844 109.107 89.6837 116.805 89.6116 116.884L86.3672 113.927C86.7254 113.533 95.2894 104.316 109.191 105.364L110.392 109.803Z" fill="#336070"/>
<path d="M89.7044 122.995C89.7044 122.995 87.2891 116.377 95.3867 112.841C103.484 109.306 109.987 113.612 108.029 120.278C100.407 125.506 95.4903 126.213 95.4903 126.213C95.4903 126.213 92.7866 127.094 89.7044 122.995Z" fill="url(#paint4_linear_2025_11488)"/>
<path opacity="0.3" d="M95.3887 112.841C91.5584 114.513 90.0939 116.872 89.5938 118.893C89.8191 118.769 101.517 112.827 107.494 120.624L108.028 120.272C109.989 113.611 103.468 109.312 95.3887 112.841Z" fill="#F3DBB3"/>
<path d="M89.7031 122.993C89.7031 122.993 92.8236 127.453 100.507 123.651C106.777 120.661 108.942 116.44 107.354 114.516C110.211 117.22 111.346 125.179 102.343 128.575C93.3396 131.971 89.7031 122.993 89.7031 122.993Z" fill="url(#paint5_linear_2025_11488)"/>
<defs>
<linearGradient id="paint0_linear_2025_11488" x1="102.501" y1="109.489" x2="146.594" y2="166.877" gradientUnits="userSpaceOnUse">
<stop stop-color="#F9AB81"/>
<stop offset="1" stop-color="#C87C66"/>
</linearGradient>
<linearGradient id="paint1_linear_2025_11488" x1="107.562" y1="41.8309" x2="117.77" y2="4.5837" gradientUnits="userSpaceOnUse">
<stop stop-color="#70DAFF"/>
<stop offset="1" stop-color="white"/>
</linearGradient>
<linearGradient id="paint2_linear_2025_11488" x1="52733.6" y1="-56384.1" x2="58654.7" y2="-62734.2" gradientUnits="userSpaceOnUse">
<stop stop-color="#D9F5FF"/>
<stop offset="1" stop-color="#08BDFD"/>
</linearGradient>
<linearGradient id="paint3_linear_2025_11488" x1="74.2164" y1="69.4785" x2="53.744" y2="31.1538" gradientUnits="userSpaceOnUse">
<stop stop-color="#CBF2FF"/>
<stop offset="1" stop-color="white"/>
</linearGradient>
<linearGradient id="paint4_linear_2025_11488" x1="92.559" y1="109.641" x2="97.8163" y2="118.977" gradientUnits="userSpaceOnUse">
<stop stop-color="#FBC4A7"/>
<stop offset="0.99" stop-color="#F5A879"/>
</linearGradient>
<linearGradient id="paint5_linear_2025_11488" x1="105.545" y1="132.388" x2="98.1666" y2="119.444" gradientUnits="userSpaceOnUse">
<stop stop-color="#F2A477"/>
<stop offset="1" stop-color="#B17957"/>
</linearGradient>
</defs>
</svg>
