<svg width="60" height="60" viewBox="0 0 60 60" fill="none" xmlns="http://www.w3.org/2000/svg">
<path d="M20.1605 32.2C20.1605 34.4 21.8635 36.2 23.7557 36.2C25.6479 36.2 27.3509 34.4 27.3509 32.2C27.3509 30 25.6479 28.2 23.7557 28.2C21.8635 28.2 20.1605 30 20.1605 32.2Z" fill="#00B0EE"/>
<path d="M32.6491 32.2C32.6491 34.4 34.3521 36.2 36.2443 36.2C38.1365 36.2 39.8395 34.4 39.8395 32.2C39.8395 30 38.1365 28.2 36.2443 28.2C34.3521 28.2 32.6491 30 32.6491 32.2Z" fill="#00B0EE"/>
<path fill-rule="evenodd" clip-rule="evenodd" d="M4.97618 9.89261C3.75 12.2991 3.75 15.4494 3.75 21.75V38.25C3.75 44.5506 3.75 47.7009 4.97618 50.1074C6.05475 52.2242 7.77578 53.9452 9.89261 55.0238C12.2991 56.25 15.4494 56.25 21.75 56.25H38.25C44.5506 56.25 47.7009 56.25 50.1074 55.0238C52.2242 53.9452 53.9452 52.2242 55.0238 50.1074C56.25 47.7009 56.25 44.5506 56.25 38.25V21.75C56.25 15.4494 56.25 12.2991 55.0238 9.89261C53.9452 7.77578 52.2242 6.05475 50.1074 4.97618C47.7009 3.75 44.5506 3.75 38.25 3.75H21.75C15.4494 3.75 12.2991 3.75 9.89261 4.97618C7.77578 6.05475 6.05475 7.77578 4.97618 9.89261ZM35.6766 15C39.2718 15.2 42.6778 16.4 45.5161 18.8C48.7328 25.2 50.4358 32.4 50.625 39.8C47.7867 43 43.8131 45 39.6502 45C39.6502 45 38.3257 43.4 37.3796 42C39.8395 41.4 42.1101 40 43.6239 37.8C42.2993 38.6 40.9748 39.4 39.6502 40C37.9473 40.8 36.2443 41.2 34.5413 41.6C33.0275 41.8 31.5138 42 30 42C28.4862 42 26.9725 41.8 25.4587 41.6C23.7557 41.2 22.0528 40.8 20.3498 40C19.0252 39.4 17.7007 38.6 16.3761 37.8C17.8899 40 20.1606 41.4 22.6204 42C21.6743 43.4 20.3498 45 20.3498 45C16.1869 45 12.2133 43 9.375 39.8C9.56422 32.4 11.2672 25.2 14.4839 18.8C17.3222 16.4 20.7282 15.2 24.3234 15L24.8911 15.6C21.6743 16.4 18.836 18 16.1869 20.2C19.4037 18.4 22.9989 17.2 26.7833 16.8C27.9186 16.6 28.8647 16.6 30 16.6C31.1353 16.6 32.0814 16.6 33.2167 16.8C37.0011 17.2 40.5963 18.4 43.8131 20.2C41.164 18 38.3257 16.4 35.1089 15.6L35.6766 15Z" fill="#00B0EE"/>
</svg>
