<svg width="60" height="60" viewBox="0 0 60 60" fill="none" xmlns="http://www.w3.org/2000/svg">
<path d="M21.5583 45.1073C21.5583 45.312 21.3218 45.4758 21.0236 45.4758C20.6843 45.5065 20.4478 45.3427 20.4478 45.1073C20.4478 44.9026 20.6843 44.7388 20.9825 44.7388C21.2909 44.7081 21.5583 44.8719 21.5583 45.1073ZM18.3605 44.6467C18.2885 44.8514 18.4942 45.0869 18.8026 45.1483C19.07 45.2506 19.3784 45.1483 19.4401 44.9436C19.5018 44.7388 19.3065 44.5034 18.998 44.4113C18.7306 44.3397 18.4325 44.442 18.3605 44.6467ZM22.9052 44.4727C22.6071 44.5444 22.4014 44.7388 22.4323 44.9743C22.4631 45.179 22.7304 45.312 23.0389 45.2404C23.3371 45.1687 23.5427 44.9743 23.5119 44.7696C23.481 44.5751 23.2034 44.442 22.9052 44.4727ZM29.671 5.25C15.4095 5.25 4.5 16.0281 4.5 30.2248C4.5 41.5761 11.677 51.2896 21.9284 54.7083C23.2446 54.9437 23.7073 54.1351 23.7073 53.4698C23.7073 52.8352 23.6764 49.3346 23.6764 47.1852C23.6764 47.1852 16.4788 48.7205 14.9673 44.1349C14.9673 44.1349 13.7952 41.1564 12.1089 40.3887C12.1089 40.3887 9.75423 38.7817 12.2734 38.8124C12.2734 38.8124 14.8337 39.0172 16.2423 41.4532C18.4942 45.4042 22.2677 44.268 23.7381 43.5925C23.9746 41.9548 24.6429 40.8186 25.3833 40.1431C19.6355 39.5085 13.8363 38.6794 13.8363 28.8328C13.8363 26.018 14.6177 24.6055 16.2629 22.804C15.9956 22.1387 15.1216 19.3956 16.5302 15.8541C18.6792 15.1887 23.625 18.6177 23.625 18.6177C25.6815 18.0445 27.8921 17.7476 30.0823 17.7476C32.2724 17.7476 34.4831 18.0445 36.5395 18.6177C36.5395 18.6177 41.4853 15.1785 43.6343 15.8541C45.0429 19.4058 44.169 22.1387 43.9016 22.804C45.5468 24.6157 46.5544 26.0282 46.5544 28.8328C46.5544 38.7101 40.4982 39.4982 34.7504 40.1431C35.6964 40.9517 36.4984 42.487 36.4984 44.8924C36.4984 48.3418 36.4675 52.61 36.4675 53.4493C36.4675 54.1146 36.9405 54.9232 38.2464 54.6878C48.5286 51.2896 55.5 41.5761 55.5 30.2248C55.5 16.0281 43.9325 5.25 29.671 5.25ZM14.4944 40.5525C14.3607 40.6549 14.3915 40.8903 14.5663 41.0847C14.7308 41.2485 14.9673 41.3202 15.101 41.1871C15.2347 41.0847 15.2038 40.8493 15.029 40.6549C14.8645 40.4911 14.628 40.4194 14.4944 40.5525ZM13.3839 39.7234C13.3119 39.8565 13.4147 40.0202 13.6204 40.1226C13.7849 40.225 13.9905 40.1943 14.0625 40.051C14.1345 39.9179 14.0317 39.7541 13.826 39.6518C13.6204 39.5904 13.4558 39.6211 13.3839 39.7234ZM16.7153 43.3673C16.5508 43.5003 16.6125 43.8074 16.849 44.0019C17.0855 44.2373 17.3837 44.268 17.5173 44.1042C17.651 43.9712 17.5893 43.6641 17.3837 43.4696C17.1575 43.2342 16.849 43.2035 16.7153 43.3673ZM15.5431 41.8627C15.3786 41.965 15.3786 42.2311 15.5431 42.4665C15.7077 42.702 15.9853 42.8043 16.119 42.702C16.2835 42.5689 16.2835 42.3028 16.119 42.0674C15.975 41.8319 15.7077 41.7296 15.5431 41.8627Z" fill="#00B0EE"/>
</svg>
