<svg width="49" height="48" viewBox="0 0 49 48" fill="none" xmlns="http://www.w3.org/2000/svg">
<path d="M24.5 44C35.5457 44 44.5 35.0457 44.5 24C44.5 12.9543 35.5457 4 24.5 4C13.4543 4 4.5 12.9543 4.5 24C4.5 35.0457 13.4543 44 24.5 44Z" fill="#00B0EE"/>
<path d="M31.9213 31.8595C31.6613 31.8595 31.4012 31.7995 31.1613 31.6395L24.9612 27.9395C23.4212 27.0195 22.2812 24.9995 22.2812 23.2195V15.0195C22.2812 14.1995 22.9613 13.5195 23.7813 13.5195C24.6013 13.5195 25.2813 14.1995 25.2813 15.0195V23.2195C25.2813 23.9395 25.8812 24.9995 26.5012 25.3595L32.7013 29.0595C33.4213 29.4795 33.6413 30.3995 33.2213 31.1195C32.9213 31.5995 32.4213 31.8595 31.9213 31.8595Z" fill="white"/>
</svg>
