<svg width="50" height="45" viewBox="0 0 50 45" fill="none" xmlns="http://www.w3.org/2000/svg">
<path d="M35.955 31.7518C36.184 31.4612 37.033 31.721 36.8656 32.2486C36.3742 33.7818 35.0057 35.5226 33.293 35.3713C29.6132 35.0446 31.2482 26.4679 32.1307 24.4713C32.274 24.1473 34.6682 24.154 34.2611 25.6711C33.9652 26.8066 31.8776 33.747 33.9023 33.9921C34.8677 34.1099 35.552 32.2647 35.955 31.7545V31.7518Z" fill="#000E55"/>
<path d="M37.722 33.3428C37.5346 33.7981 38.3956 35.579 39.4334 35.7169C41.1755 35.9486 42.2588 32.5393 42.9163 31.8591C43.2885 31.4748 43.958 32.0385 43.8616 32.3827C43.2885 34.41 41.1996 37.2649 38.8067 36.91C36.0656 36.5043 35.1376 33.1633 35.3131 30.7919C35.5193 27.9919 36.466 22.637 40.3078 22.5821C41.9709 22.5579 42.6043 24.1863 42.3927 25.5682C41.9187 28.6641 38.3152 31.9019 37.722 33.3414V33.3428ZM37.6109 31.9461C37.7783 32.0091 40.0935 27.5821 40.368 25.1397C40.443 24.4728 40.2421 24.0845 40.0025 24.1273C38.2844 24.4353 37.7876 29.4207 37.6444 31.1213C37.6189 31.4226 37.6109 31.9461 37.6109 31.9461Z" fill="#000E55"/>
<path d="M26.7434 28.9557C25.8034 31.2388 24.6906 34.8864 23.6234 38.0774C22.2441 38.7188 21.6589 38.2836 21.6322 37.5525C21.5853 35.631 21.9656 30.4488 22.3325 26.5628L23.2846 26.0419C24.1844 25.5532 24.8981 25.8411 24.8151 26.5267C24.5446 28.6678 23.8068 31.9914 23.5832 34.699C24.9624 30.4756 25.8047 28.4188 26.9523 25.9254C27.3285 25.1046 28.4239 24.8689 29.4938 26.0205C28.2096 33.4911 28.9301 35.4609 29.6853 35.4207C30.3803 35.3832 30.8824 34.932 31.5653 33.0238C31.9577 32.689 32.6379 32.8176 32.5214 33.3171C32.101 35.0378 30.7552 36.6259 29.1671 36.7705C27.0714 36.9607 26.2198 33.7549 26.7407 28.9584L26.7434 28.9557Z" fill="#000E55"/>
<path d="M14.2462 28.1136C14.0373 27.6717 13.5338 27.4534 13.0691 27.6034C12.5563 27.7681 12.0555 27.9703 11.5721 28.2073C10.3589 28.8126 9.2836 29.695 8.37571 30.7141C7.55353 31.6246 6.8706 32.6504 6.34837 33.7604C6.20643 34.0644 6.44612 34.4193 6.77151 34.3871C7.01388 34.3644 7.11297 34.1541 7.23483 33.9707C7.38748 33.7417 7.54817 33.5181 7.72225 33.3025C8.13468 32.7789 8.58862 32.2888 9.0814 31.8389C9.98795 31.01 11.0498 30.303 12.2041 29.9013C11.5828 37.1938 9.91296 41.5859 8.60335 41.8229C7.275 42.0626 5.01734 39.9081 4.02911 33.7203C2.31645 23.0171 5.36951 17.6997 8.67165 17.1025C10.5691 16.7597 11.8077 19.3789 10.3548 24.6856C10.229 25.1087 10.5222 25.9778 11.9269 25.7234C14.7738 25.2092 16.2106 13.6959 9.15237 14.972C1.93348 16.2776 -0.989696 28.0185 0.293127 36.0368C1.43267 43.1593 5.15125 45.1706 6.8224 44.8693C9.02382 44.4703 11.4167 42.5969 13.0263 36.539C13.8525 33.9466 14.3386 28.6573 14.3386 28.6573C14.3587 28.4711 14.3265 28.2837 14.2462 28.1136Z" fill="#000E55"/>
<path d="M22.3269 35.2241H21.6922C21.5194 38.9842 19.0113 38.7806 18.1035 38.5262C17.1956 38.2718 16.4765 37.2862 16.6452 36.8845C17.1969 35.5468 20.6396 32.5379 21.0789 29.6603C21.2757 28.3761 20.5941 26.863 19.0488 26.8844C15.4762 26.9353 14.5991 31.9126 14.4063 34.5144C14.247 36.6703 15.0718 39.1515 17.4942 39.6336C17.4942 39.6336 19.8027 40.1679 21.186 38.7913C21.186 38.7913 22.5733 37.5326 22.3282 35.2254L22.3269 35.2241ZM16.5421 35.5883C16.5421 35.5883 16.5501 35.0995 16.5729 34.821C16.7068 33.2409 17.1688 28.6078 18.7663 28.3225C18.9913 28.2824 19.2671 28.6426 19.1988 29.2626C18.9417 31.5336 16.6974 35.6445 16.5421 35.5883Z" fill="#000E55"/>
<path d="M37.9586 7.83336C36.8565 7.52001 31.7828 6.46885 30.2657 11.8439C28.7485 17.2188 33.6388 18.6449 32.7094 21.9672C32.7094 21.9672 32.2635 23.1107 33.4767 23.4374C34.6913 23.7642 34.8975 22.5952 34.8975 22.5952C35.8415 19.277 40.851 20.6616 42.3882 15.2946C43.9254 9.92765 39.0593 8.1467 37.9586 7.83336ZM38.7339 18.5673L38.5344 18.5083C37.9104 18.3236 37.4069 17.8294 37.0989 17.1063C36.6356 17.4197 36.1495 17.5857 35.6849 17.5844C35.4974 17.5844 35.3126 17.5576 35.1332 17.5041C34.5092 17.3206 34.0057 16.8251 33.6977 16.1007C33.233 16.4141 32.7483 16.5801 32.2809 16.5801C32.0948 16.5801 31.91 16.552 31.7319 16.4998L31.5324 16.4408L31.7828 15.5878L31.9823 15.6468C32.0788 15.6749 32.1778 15.6883 32.2769 15.6896C32.7255 15.6896 33.1446 15.4285 33.4339 15.1888C33.316 14.4992 33.3455 13.76 33.5156 13.1883C33.7178 12.5027 34.1115 12.1103 34.5975 12.1103C34.6872 12.1103 34.777 12.1237 34.864 12.1505C35.4559 12.3259 35.6741 12.9405 35.4331 13.756C35.2644 14.3291 34.8854 14.9665 34.4154 15.478C34.6029 16.1101 34.947 16.5265 35.3836 16.6551C35.4813 16.6845 35.5831 16.6993 35.6849 16.6993C36.1308 16.6993 36.5459 16.4368 36.8351 16.1985C36.6356 15.0429 36.8539 13.8725 37.3654 13.3878C37.5354 13.2191 37.7644 13.1227 38.0041 13.1213C38.0925 13.1213 38.1809 13.1347 38.2652 13.1602C38.5853 13.2525 38.829 13.5136 38.8973 13.8404C39.062 14.526 38.6094 15.6267 37.8153 16.4877C37.9412 16.8894 38.217 17.4974 38.7848 17.6647L38.9843 17.7237L38.7339 18.5713V18.5673ZM38.1835 14.0037C38.1768 13.9328 38.1273 13.8738 38.0577 13.8564C38.0429 13.8524 38.0282 13.8497 38.0135 13.8484H38.0028C37.9519 13.8511 37.905 13.8738 37.8715 13.9113C37.6305 14.139 37.4404 14.8607 37.5113 15.703C38.0296 15.0362 38.2599 14.3265 38.1822 14.0051L38.1835 14.0037ZM34.6565 12.8508C34.6444 12.8468 34.6323 12.8455 34.6203 12.8441H34.6096C34.4409 12.8441 34.2962 13.128 34.2199 13.3918C34.1155 13.7453 34.078 14.2233 34.1155 14.6934C34.3873 14.3492 34.5962 13.9595 34.7288 13.5418C34.7582 13.4387 34.8975 12.9218 34.6565 12.8495V12.8508Z" fill="#00B0EE"/>
<path d="M38.3264 6.15836L38.3384 1.41003C38.3397 0.629363 38.9745 -0.00133694 39.7538 2.12832e-06C40.5345 0.00134119 41.1652 0.636058 41.1638 1.41539C41.1638 1.66178 41.0982 1.90415 40.975 2.1184L38.6009 6.23067C38.5594 6.3003 38.4696 6.3244 38.4 6.28289C38.3545 6.25611 38.3277 6.2079 38.3277 6.15702L38.3264 6.15836Z" fill="#00B0EE"/>
<path d="M43.6038 10.2398L46.9702 6.89346C47.5246 6.3431 48.4191 6.34578 48.9694 6.89882C49.5198 7.45319 49.5171 8.34768 48.9641 8.89804C48.7886 9.07078 48.5717 9.19665 48.3334 9.26092L43.7484 10.4848C43.6707 10.5049 43.5904 10.4594 43.5703 10.3817C43.5556 10.3308 43.5703 10.2773 43.6051 10.2398H43.6038Z" fill="#00B0EE"/>
<path d="M43.843 16.6846L48.5913 16.6966C49.372 16.698 50.0027 17.3327 50 18.1134C49.9987 18.894 49.364 19.5247 48.5833 19.522C48.3369 19.522 48.0945 19.4564 47.8816 19.3332L43.768 16.9577C43.6984 16.9162 43.6743 16.8279 43.7145 16.7582C43.7412 16.7127 43.7894 16.6846 43.8417 16.6846H43.843Z" fill="#00B0EE"/>
<path d="M31.7904 6.84792L30.7151 2.22145C30.537 1.4622 29.7778 0.989515 29.0185 1.16761C28.2593 1.3457 27.7866 2.10495 27.9647 2.8642C28.0209 3.10255 28.1374 3.3235 28.3048 3.50293L31.5413 6.97915C31.5962 7.03806 31.6886 7.04208 31.7489 6.98718C31.7877 6.95102 31.8038 6.89746 31.7917 6.84658L31.7904 6.84792Z" fill="#00B0EE"/>
<path d="M28.1591 12.1773L24.1258 9.66655C23.4643 9.25412 22.5926 9.45498 22.1802 10.1178C21.7677 10.7793 21.9686 11.651 22.6314 12.0635C22.8417 12.1947 23.0827 12.2684 23.3304 12.2764L28.0747 12.4491C28.1564 12.4518 28.2234 12.3875 28.226 12.3058C28.2274 12.2536 28.2019 12.2041 28.1564 12.176H28.1591V12.1773Z" fill="#00B0EE"/>
</svg>
